<?xml version="1.0" encoding="UTF-8"?>
<svg version="1.1" xmlns="http://www.w3.org/2000/svg" width="200" height="200">
<path d="M0 0 C0.81345886 -0.00700928 1.62691772 -0.01401855 2.46502686 -0.02124023 C5.15151192 -0.03883246 7.8369419 -0.02719351 10.5234375 -0.01367188 C12.39144086 -0.01636645 14.25944285 -0.02024857 16.12744141 -0.02526855 C20.04147705 -0.03116525 23.95514745 -0.02259515 27.86914062 -0.00390625 C32.88653639 0.01888345 37.90307631 0.00576128 42.92044067 -0.01819611 C46.77749074 -0.03264946 50.63433787 -0.02805023 54.49139404 -0.01768494 C56.34137066 -0.01501637 58.19136569 -0.01829198 60.0413208 -0.02760315 C62.62700207 -0.03776125 65.21129701 -0.02227898 67.796875 0 C68.56167175 -0.00809692 69.32646851 -0.01619385 70.11444092 -0.02453613 C73.31441044 0.02655099 75.57569055 0.33347206 78.37243652 1.92883301 C80.75891835 5.97731874 80.4553006 9.83704132 80.41601562 14.45507812 C80.4230249 15.4636084 80.43003418 16.47213867 80.43725586 17.51123047 C80.45486968 20.84695927 80.4432006 24.1818406 80.4296875 27.51757812 C80.43238143 29.83398603 80.43626301 32.15039284 80.44128418 34.46679688 C80.44718384 39.32237511 80.43860088 44.17765908 80.41992188 49.03320312 C80.39713246 55.26122458 80.41025298 61.48855658 80.43421173 67.71655273 C80.44865682 72.50005297 80.44406955 77.2833894 80.43370056 82.06689453 C80.43102973 84.36344484 80.4343155 86.66000995 80.44361877 88.95654297 C80.45376277 92.16478953 80.43831233 95.37191519 80.41601562 98.58007812 C80.42411255 99.53188965 80.43220947 100.48370117 80.44055176 101.46435547 C80.39132565 105.28219153 80.33316633 107.78009358 78.37243652 111.10632324 C74.89176068 113.09182151 71.6972051 113.07644915 67.796875 113.03515625 C66.57668671 113.04567017 66.57668671 113.04567017 65.33184814 113.05639648 C62.64536308 113.07398871 59.9599331 113.06234976 57.2734375 113.04882812 C55.40543414 113.0515227 53.53743215 113.05540482 51.66943359 113.0604248 C47.75539795 113.0663215 43.84172755 113.0577514 39.92773438 113.0390625 C34.91033861 113.0162728 29.89379869 113.02939497 24.87643433 113.05335236 C21.01938426 113.06780571 17.16253713 113.06320648 13.30548096 113.05284119 C11.45550434 113.05017262 9.60550931 113.05344823 7.7555542 113.0627594 C5.16987293 113.0729175 2.58557799 113.05743523 0 113.03515625 C-1.14719513 113.04730164 -1.14719513 113.04730164 -2.31756592 113.05969238 C-5.51753544 113.00860526 -7.77881555 112.70168419 -10.57556152 111.10632324 C-12.96204335 107.05783751 -12.6584256 103.19811493 -12.61914062 98.58007812 C-12.6261499 97.57154785 -12.63315918 96.56301758 -12.64038086 95.52392578 C-12.65799468 92.18819698 -12.6463256 88.85331565 -12.6328125 85.51757812 C-12.63550643 83.20117022 -12.63938801 80.88476341 -12.64440918 78.56835938 C-12.65030884 73.71278114 -12.64172588 68.85749717 -12.62304688 64.00195312 C-12.60025746 57.77393167 -12.61337798 51.54659967 -12.63733673 45.31860352 C-12.65178182 40.53510328 -12.64719455 35.75176685 -12.63682556 30.96826172 C-12.63415473 28.67171141 -12.6374405 26.3751463 -12.64674377 24.07861328 C-12.65688777 20.87036672 -12.64143733 17.66324106 -12.61914062 14.45507812 C-12.62723755 13.5032666 -12.63533447 12.55145508 -12.64367676 11.57080078 C-12.59445065 7.75296472 -12.53629133 5.25506267 -10.57556152 1.92883301 C-7.09488568 -0.05666526 -3.9003301 -0.0412929 0 0 Z M-4.1015625 8.51757812 C-4.1015625 40.19757813 -4.1015625 71.87757813 -4.1015625 104.51757812 C20.9784375 104.51757812 46.0584375 104.51757812 71.8984375 104.51757812 C71.8984375 72.83757812 71.8984375 41.15757813 71.8984375 8.51757812 C46.8184375 8.51757812 21.7384375 8.51757812 -4.1015625 8.51757812 Z " fill="#FAAF04" transform="translate(12.1015625,71.482421875)"/>
<path d="M0 0 C1.44926658 -0.0054243 2.89852765 -0.01254868 4.34777832 -0.02124023 C8.27345865 -0.03944027 12.19871742 -0.03242002 16.12440491 -0.01972389 C20.23757034 -0.00957891 24.3507003 -0.01899373 28.46386719 -0.02526855 C35.37050846 -0.03254061 42.27697849 -0.02296892 49.18359375 -0.00390625 C57.16239011 0.01786174 65.1407776 0.01081005 73.11956406 -0.01121187 C79.9766578 -0.02937852 86.83362864 -0.03191804 93.69073868 -0.0214572 C97.78327382 -0.01522918 101.87561693 -0.01436746 105.96813965 -0.02760315 C109.81622913 -0.03917957 113.66379274 -0.03110382 117.51182556 -0.00802612 C118.92190173 -0.00274851 120.33202235 -0.00423665 121.74208069 -0.01307678 C132.52936985 -0.07445782 132.52936985 -0.07445782 137.46386719 2.17492676 C141.08580159 5.76376108 143.54255337 8.60168274 144.30914307 13.74472046 C144.30026062 14.9038797 144.29137817 16.06303894 144.28222656 17.25732422 C144.28281067 17.90193604 144.28339478 18.54654785 144.28399658 19.21069336 C144.28123075 21.32136686 144.25021475 23.43059181 144.21875 25.54101562 C144.21128215 27.01216867 144.20559179 28.48333171 144.20159912 29.95449829 C144.18638527 33.81150159 144.14714138 37.66789467 144.1027832 41.5246582 C144.06173792 45.46622464 144.04356845 49.40789045 144.0234375 53.34960938 C143.98064191 61.07254269 143.91244354 68.79497464 143.828125 76.51757812 C141.188125 76.51757812 138.548125 76.51757812 135.828125 76.51757812 C135.82003815 75.77699661 135.81195129 75.0364151 135.80361938 74.27339172 C135.7255888 67.2846313 135.63827275 60.29606243 135.54059792 53.30755329 C135.49071116 49.7149216 135.44438077 46.12231823 135.40625 42.52954102 C135.36930046 39.06050609 135.3229149 35.59171254 135.27006149 32.12288475 C135.24258603 30.15934016 135.22481345 28.19566756 135.20718384 26.23200989 C135.1773793 24.43070869 135.1773793 24.43070869 135.14697266 22.59301758 C135.12698715 21.01083183 135.12698715 21.01083183 135.1065979 19.39668274 C134.80791356 16.30861394 134.37882691 14.21125224 132.828125 11.51757812 C129.17205481 9.66791329 126.16338709 9.26670212 122.09741211 9.26361084 C120.95343964 9.25797119 119.80946716 9.25233154 118.63082886 9.246521 C117.38496002 9.25056946 116.13909119 9.25461792 114.85546875 9.25878906 C113.53628448 9.25528442 112.21710022 9.25177979 110.85794067 9.24816895 C107.24640847 9.23906361 103.63499074 9.24258151 100.02345657 9.24892712 C96.24081365 9.25399672 92.45818042 9.24929299 88.67553711 9.24615479 C82.3237126 9.24251794 75.97193463 9.24730684 69.62011719 9.25683594 C62.28046534 9.26771996 54.9409246 9.26419418 47.60127544 9.25318313 C41.29540653 9.24410222 34.98957104 9.2428289 28.6836977 9.24806046 C24.91931144 9.25117575 21.15497738 9.25160165 17.39059448 9.24498749 C13.19392331 9.23812862 8.9974432 9.24763991 4.80078125 9.25878906 C2.931978 9.25271637 2.931978 9.25271637 1.02542114 9.246521 C-0.11855133 9.25216064 -1.2625238 9.25780029 -2.44116211 9.26361084 C-3.92887367 9.26474192 -3.92887367 9.26474192 -5.44664001 9.26589584 C-8.39159144 9.53786949 -10.53358509 10.19321137 -13.171875 11.51757812 C-15.69397066 15.63859628 -15.51463825 20.17961551 -15.5859375 24.88085938 C-15.60530365 25.67284225 -15.6246698 26.46482513 -15.6446228 27.2808075 C-15.70414732 29.79712332 -15.75069458 32.31348556 -15.796875 34.83007812 C-15.83507981 36.54168603 -15.87413299 38.25327522 -15.9140625 39.96484375 C-16.0098263 44.14893561 -16.0939568 48.33311743 -16.171875 52.51757812 C-18.811875 52.51757812 -21.451875 52.51757812 -24.171875 52.51757812 C-24.27099189 46.64604582 -24.34346111 40.77500399 -24.39160156 34.90283203 C-24.41167669 32.90665195 -24.43894289 30.91053038 -24.47363281 28.91455078 C-24.52233157 26.03989192 -24.54488486 23.16601273 -24.5625 20.29101562 C-24.58314514 19.40328461 -24.60379028 18.51555359 -24.62506104 17.60092163 C-24.62704743 12.07536994 -23.99149271 8.80611858 -20.171875 4.51757812 C-14.37093592 -0.95351837 -7.57239889 -0.04747394 0 0 Z " fill="#FAB004" transform="translate(40.171875,15.482421875)"/>
<path d="M0 0 C1.31806641 -0.00315216 2.63613281 -0.00630432 3.99414062 -0.009552 C5.44401075 -0.00776222 6.89388058 -0.00571127 8.34375 -0.00341797 C9.81966162 -0.00409104 11.29557313 -0.0050611 12.77148438 -0.00631714 C15.86850029 -0.00779395 18.96548742 -0.00564011 22.0625 -0.00097656 C26.04083549 0.00472073 30.01910352 0.00144163 33.99743652 -0.00454903 C37.04622917 -0.0081551 40.09500571 -0.00701584 43.14379883 -0.00442123 C44.61108406 -0.00375209 46.07837074 -0.00457994 47.5456543 -0.00690079 C49.59293593 -0.00942804 51.64022266 -0.00489607 53.6875 0 C55.43836914 0.00119339 55.43836914 0.00119339 57.22460938 0.00241089 C59.84375 0.12939453 59.84375 0.12939453 60.84375 1.12939453 C60.94404857 3.55796488 60.97993425 5.95811066 60.97314453 8.38720703 C60.97577301 9.52618439 60.97577301 9.52618439 60.97845459 10.68817139 C60.9828733 13.21026869 60.97993506 15.73229646 60.9765625 18.25439453 C60.97723553 19.9993491 60.97820555 21.74430357 60.97946167 23.48925781 C60.98093867 27.15121348 60.97878403 30.81314481 60.97412109 34.47509766 C60.9684238 39.17983945 60.9717028 43.88452421 60.97769356 48.58926392 C60.98129912 52.19393344 60.98016061 55.79858935 60.97756577 59.40325928 C60.97689648 61.13848884 60.97772496 62.87371962 60.98004532 64.60894775 C60.98257177 67.02985941 60.97873138 69.45067739 60.97314453 71.87158203 C60.97516876 72.59577332 60.97719299 73.3199646 60.97927856 74.06610107 C60.95801266 79.01513187 60.95801266 79.01513187 59.84375 80.12939453 C57.79362154 80.22879079 55.74003608 80.25739006 53.6875 80.25878906 C52.36943359 80.26194122 51.05136719 80.26509338 49.69335938 80.26834106 C48.24348925 80.26655129 46.79361942 80.26450033 45.34375 80.26220703 C43.86783838 80.26288011 42.39192687 80.26385016 40.91601562 80.2651062 C37.81899971 80.26658301 34.72201258 80.26442917 31.625 80.25976562 C27.64666451 80.25406834 23.66839648 80.25734743 19.69006348 80.26333809 C16.64127083 80.26694417 13.59249429 80.2658049 10.54370117 80.2632103 C9.07641594 80.26254116 7.60912926 80.263369 6.1418457 80.26568985 C4.09456407 80.2682171 2.04727734 80.26368513 0 80.25878906 C-1.75086914 80.25759567 -1.75086914 80.25759567 -3.53710938 80.25637817 C-6.15625 80.12939453 -6.15625 80.12939453 -7.15625 79.12939453 C-7.25654857 76.70082418 -7.29243425 74.3006784 -7.28564453 71.87158203 C-7.28739685 71.11226379 -7.28914917 70.35294556 -7.29095459 69.57061768 C-7.2953733 67.04852037 -7.29243506 64.52649261 -7.2890625 62.00439453 C-7.28973553 60.25943997 -7.29070555 58.51448549 -7.29196167 56.76953125 C-7.29343867 53.10757558 -7.29128403 49.44564425 -7.28662109 45.78369141 C-7.2809238 41.07894961 -7.2842028 36.37426485 -7.29019356 31.66952515 C-7.29379912 28.06485562 -7.29266061 24.46019971 -7.29006577 20.85552979 C-7.28939648 19.12030023 -7.29022496 17.38506945 -7.29254532 15.64984131 C-7.29507177 13.22892966 -7.29123138 10.80811167 -7.28564453 8.38720703 C-7.28766876 7.66301575 -7.28969299 6.93882446 -7.29177856 6.19268799 C-7.26369612 -0.34269788 -6.34931176 0.00432768 0 0 Z M0.84375 8.12939453 C0.84375 29.24939453 0.84375 50.36939453 0.84375 72.12939453 C18.00375 72.12939453 35.16375 72.12939453 52.84375 72.12939453 C52.84375 51.00939453 52.84375 29.88939453 52.84375 8.12939453 C35.68375 8.12939453 18.52375 8.12939453 0.84375 8.12939453 Z " fill="#F9AF05" transform="translate(19.15625,83.87060546875)"/>
<path d="M0 0 C1.54179932 -0.01891296 1.54179932 -0.01891296 3.11474609 -0.03820801 C4.77111084 -0.02606262 4.77111084 -0.02606262 6.4609375 -0.01367188 C8.16950928 -0.01941223 8.16950928 -0.01941223 9.91259766 -0.02526855 C12.31999597 -0.02798962 14.72742376 -0.02061498 17.13476562 -0.00390625 C20.82228432 0.01749887 24.50785449 -0.0037032 28.1953125 -0.02929688 C30.53385847 -0.02665364 32.87240323 -0.02152874 35.2109375 -0.01367188 C36.31518066 -0.0217688 37.41942383 -0.02986572 38.55712891 -0.03820801 C39.58499512 -0.02559937 40.61286133 -0.01299072 41.671875 0 C43.02611572 0.00477356 43.02611572 0.00477356 44.40771484 0.00964355 C47.76598653 0.71212538 48.87445705 1.7053992 50.8359375 4.51757812 C51.23076656 7.23137558 51.3837025 9.54009023 51.35351562 12.25195312 C51.3605249 13.02639771 51.36753418 13.80084229 51.37475586 14.59875488 C51.39234249 17.15539544 51.38071139 19.71092657 51.3671875 22.26757812 C51.36988224 24.0459006 51.37376451 25.82422163 51.37878418 27.60253906 C51.38468011 31.3282678 51.37611337 35.05361277 51.35742188 38.77929688 C51.33463209 43.55457099 51.34775469 48.32894589 51.37171173 53.10418701 C51.38616725 56.77594781 51.38156489 60.44749547 51.37120056 64.1192627 C51.36853258 65.87992459 51.37180554 67.64060584 51.38111877 69.40124512 C51.39128058 71.862419 51.37579003 74.32213763 51.35351562 76.78320312 C51.36161255 77.51059692 51.36970947 78.23799072 51.37805176 78.98742676 C51.32260025 82.29530743 51.03743487 84.22869089 49.12634277 86.96862793 C46.40113066 88.81162833 44.94218394 89.02362875 41.671875 89.03515625 C40.13007568 89.05406921 40.13007568 89.05406921 38.55712891 89.07336426 C36.90076416 89.06121887 36.90076416 89.06121887 35.2109375 89.04882812 C33.50236572 89.05456848 33.50236572 89.05456848 31.75927734 89.0604248 C29.35187903 89.06314587 26.94445124 89.05577123 24.53710938 89.0390625 C20.84959068 89.01765738 17.16402051 89.03885945 13.4765625 89.06445312 C11.13801653 89.06180989 8.79947177 89.05668499 6.4609375 89.04882812 C5.35669434 89.05692505 4.25245117 89.06502197 3.11474609 89.07336426 C2.08687988 89.06075562 1.05901367 89.04814697 0 89.03515625 C-0.90282715 89.03197388 -1.8056543 89.0287915 -2.73583984 89.0255127 C-6.09411153 88.32303087 -7.20258205 87.32975705 -9.1640625 84.51757812 C-9.55889156 81.80378067 -9.7118275 79.49506602 -9.68164062 76.78320312 C-9.6886499 76.00875854 -9.69565918 75.23431396 -9.70288086 74.43640137 C-9.72046749 71.87976081 -9.70883639 69.32422968 -9.6953125 66.76757812 C-9.69800724 64.98925565 -9.70188951 63.21093462 -9.70690918 61.43261719 C-9.71280511 57.70688845 -9.70423837 53.98154348 -9.68554688 50.25585938 C-9.66275709 45.48058526 -9.67587969 40.70621036 -9.69983673 35.93096924 C-9.71429225 32.25920844 -9.70968989 28.58766078 -9.69932556 24.91589355 C-9.69665758 23.15523166 -9.69993054 21.39455041 -9.70924377 19.63391113 C-9.71940558 17.17273725 -9.70391503 14.71301862 -9.68164062 12.25195312 C-9.68973755 11.52455933 -9.69783447 10.79716553 -9.70617676 10.04772949 C-9.65072525 6.73984882 -9.36555987 4.80646536 -7.45446777 2.06652832 C-4.72925566 0.22352792 -3.27030894 0.0115275 0 0 Z M-1.1640625 8.51757812 C-1.1640625 32.27757813 -1.1640625 56.03757813 -1.1640625 80.51757812 C13.3559375 80.51757812 27.8759375 80.51757812 42.8359375 80.51757812 C42.8359375 56.75757813 42.8359375 32.99757812 42.8359375 8.51757812 C28.3159375 8.51757812 13.7959375 8.51757812 -1.1640625 8.51757812 Z " fill="#FAAF04" transform="translate(149.1640625,95.482421875)"/>
<path d="M0 0 C1.12742615 -0.00281982 2.25485229 -0.00563965 3.41644287 -0.00854492 C4.66427551 -0.00652069 5.91210815 -0.00449646 7.19775391 -0.00241089 C8.50327209 -0.00416321 9.80879028 -0.00591553 11.15386963 -0.00772095 C14.7446815 -0.01229497 18.33546476 -0.01050585 21.92627716 -0.00734186 C25.67611267 -0.0048181 29.42594565 -0.00715584 33.17578125 -0.00872803 C39.47412559 -0.01054968 45.77245822 -0.00814354 52.07080078 -0.00338745 C59.36270524 0.00205516 66.65458174 0.0002925 73.94648552 -0.00521386 C80.19615354 -0.00974512 86.44581312 -0.01039547 92.69548225 -0.00777519 C96.43295882 -0.00621249 100.17042222 -0.00601846 103.90789795 -0.00931168 C108.07224191 -0.01272441 112.23653732 -0.00800044 116.40087891 -0.00241089 C117.64871155 -0.00443512 118.89654419 -0.00645935 120.18218994 -0.00854492 C121.87332916 -0.00431519 121.87332916 -0.00431519 123.59863281 0 C124.58457428 0.00037703 125.57051575 0.00075405 126.58633423 0.0011425 C128.79931641 0.12698364 128.79931641 0.12698364 129.79931641 1.12698364 C129.89312943 2.96816394 129.91675595 4.81296006 129.9128418 6.65652466 C129.91276627 7.83767349 129.91269073 9.01882233 129.91261292 10.23576355 C129.90745163 11.52115524 129.90229034 12.80654694 129.89697266 14.13088989 C129.89485023 16.09311745 129.89485023 16.09311745 129.89268494 18.09498596 C129.8888605 21.57861223 129.87903087 25.06219704 129.86798096 28.54580688 C129.85776523 32.09825072 129.85318697 35.65070124 129.84814453 39.20315552 C129.83740853 46.17778196 129.820333 53.15238081 129.79931641 60.12698364 C127.15931641 60.12698364 124.51931641 60.12698364 121.79931641 60.12698364 C121.79931641 42.96698364 121.79931641 25.80698364 121.79931641 8.12698364 C82.19931641 8.12698364 42.59931641 8.12698364 1.79931641 8.12698364 C1.79931641 17.36698364 1.79931641 26.60698364 1.79931641 36.12698364 C-0.84068359 36.12698364 -3.48068359 36.12698364 -6.20068359 36.12698364 C-6.22533457 31.16076015 -6.24352008 26.19457198 -6.25561523 21.228302 C-6.26065549 19.53754049 -6.26748764 17.84678335 -6.27612305 16.15603638 C-6.28820216 13.73097657 -6.29391482 11.3059742 -6.29833984 8.88088989 C-6.30350113 8.1204689 -6.30866241 7.36004791 -6.3139801 6.57658386 C-6.31417597 4.75965794 -6.26265636 2.94285237 -6.20068359 1.12698364 C-4.49992585 -0.5737741 -2.32684887 0.00088979 0 0 Z " fill="#F9AF05" transform="translate(38.20068359375,31.873016357421875)"/>
<path d="M0 0 C0.73541016 0.00202423 1.47082031 0.00404846 2.22851562 0.00613403 C2.97939453 0.00517731 3.73027344 0.00422058 4.50390625 0.00323486 C6.09440189 0.00255315 7.6849003 0.00440682 9.27539062 0.00857544 C11.71816217 0.01392386 14.16074984 0.00863019 16.60351562 0.00222778 C18.1451827 0.00288857 19.68684966 0.00416973 21.22851562 0.00613403 C21.96392578 0.0041098 22.69933594 0.00208557 23.45703125 0 C28.61356402 0.02399493 28.61356402 0.02399493 29.72851562 1.13894653 C29.82726732 2.82149888 29.85650467 4.50818682 29.85791016 6.19363403 C29.86106232 7.27145142 29.86421448 8.3492688 29.86746216 9.45974731 C29.86543793 10.63263306 29.8634137 11.8055188 29.86132812 13.01394653 C29.86228485 14.20874634 29.86324158 15.40354614 29.86422729 16.634552 C29.86490934 19.16661634 29.8630534 21.69868241 29.85888672 24.23074341 C29.85353883 28.12205913 29.85883095 32.01325943 29.86523438 35.90457153 C29.8645736 38.35769679 29.86329244 40.81082197 29.86132812 43.26394653 C29.86335236 44.43683228 29.86537659 45.60971802 29.86746216 46.81814575 C29.86273392 48.43487183 29.86273392 48.43487183 29.85791016 50.08425903 C29.85711456 51.03832642 29.85631897 51.9923938 29.85549927 52.97537231 C29.72851562 55.13894653 29.72851562 55.13894653 28.72851562 56.13894653 C26.21927409 56.23981865 23.73815179 56.27866686 21.22851562 56.27175903 C20.47763672 56.27271576 19.72675781 56.27367249 18.953125 56.2746582 C17.36262936 56.27533991 15.77213095 56.27348625 14.18164062 56.26931763 C11.73886908 56.2639692 9.29628141 56.26926287 6.85351562 56.27566528 C5.31184855 56.2750045 3.77018159 56.27372333 2.22851562 56.27175903 C1.49310547 56.27378326 0.75769531 56.2758075 0 56.27789307 C-5.15653277 56.25389814 -5.15653277 56.25389814 -6.27148438 55.13894653 C-6.37023607 53.45639419 -6.39947342 51.76970625 -6.40087891 50.08425903 C-6.40403107 49.00644165 -6.40718323 47.92862427 -6.41043091 46.81814575 C-6.40840668 45.64526001 -6.40638245 44.47237427 -6.40429688 43.26394653 C-6.4052536 42.06914673 -6.40621033 40.87434692 -6.40719604 39.64334106 C-6.40787809 37.11127673 -6.40602215 34.57921066 -6.40185547 32.04714966 C-6.39650758 28.15583393 -6.4017997 24.26463364 -6.40820312 20.37332153 C-6.40754235 17.92019628 -6.40626119 15.46707109 -6.40429688 13.01394653 C-6.40632111 11.84106079 -6.40834534 10.66817505 -6.41043091 9.45974731 C-6.40727875 8.38192993 -6.40412659 7.30411255 -6.40087891 6.19363403 C-6.40008331 5.23956665 -6.39928772 4.28549927 -6.39846802 3.30252075 C-6.14947994 -0.93979091 -3.6615902 0.0170385 0 0 Z M1.72851562 8.13894653 C1.72851562 21.33894653 1.72851562 34.53894653 1.72851562 48.13894653 C8.32851562 48.13894653 14.92851562 48.13894653 21.72851562 48.13894653 C21.72851562 34.93894653 21.72851562 21.73894653 21.72851562 8.13894653 C15.12851563 8.13894653 8.52851563 8.13894653 1.72851562 8.13894653 Z " fill="#F9AF05" transform="translate(158.271484375,107.86105346679688)"/>
<path d="M0 0 C6.6 0 13.2 0 20 0 C20 2.64 20 5.28 20 8 C16.04 8 12.08 8 8 8 C8 9.32 8 10.64 8 12 C11.96 12 15.92 12 20 12 C20 14.64 20 17.28 20 20 C13.4 20 6.8 20 0 20 C0 13.4 0 6.8 0 0 Z " fill="#FAB005" transform="translate(116,140)"/>
<path d="M0 0 C13.2 0 26.4 0 40 0 C40 2.64 40 5.28 40 8 C26.8 8 13.6 8 0 8 C0 5.36 0 2.72 0 0 Z " fill="#FAB005" transform="translate(96,164)"/>
<path d="M0 0 C13.2 0 26.4 0 40 0 C40 2.64 40 5.28 40 8 C26.8 8 13.6 8 0 8 C0 5.36 0 2.72 0 0 Z " fill="#FAB005" transform="translate(96,128)"/>
<path d="M0 0 C3 0.125 3 0.125 4 1.125 C4.125 4.125 4.125 4.125 4 7.125 C3 8.125 3 8.125 0 8.25 C-3 8.125 -3 8.125 -4 7.125 C-4.125 4.125 -4.125 4.125 -4 1.125 C-3 0.125 -3 0.125 0 0 Z " fill="#F9AF05" transform="translate(170,165.875)"/>
<path d="M0 0 C3 0.125 3 0.125 4 1.125 C4.125 4.125 4.125 4.125 4 7.125 C3 8.125 3 8.125 0 8.25 C-3 8.125 -3 8.125 -4 7.125 C-4.125 4.125 -4.125 4.125 -4 1.125 C-3 0.125 -3 0.125 0 0 Z " fill="#F9AF05" transform="translate(46,165.875)"/>
</svg>
